<?xml version="1.0" encoding="utf-8"?>
<!-- Generator: Adobe Illustrator 22.0.0, SVG Export Plug-In . SVG Version: 6.00 Build 0)  -->
<svg version="1.1" id="图层_1" xmlns="http://www.w3.org/2000/svg" xmlns:xlink="http://www.w3.org/1999/xlink" x="0px" y="0px"
	 viewBox="0 0 1858 1146" style="enable-background:new 0 0 1858 1146;" xml:space="preserve">
<style type="text/css">
	.st0{fill:#275FAC;}
	.st1{fill:#6AAFE0;}
	.st2{fill:#3075B3;}
	.st3{fill:#3F85C6;}
</style>
<g>
	<g>
		<path class="st0" d="M653.1,501.4c0-0.8,0.6-1.4,1.4-1.4h84.9c38.1,0,67.1,10.6,86.9,31.7c19,20.1,28.4,48.8,28.4,86.3
			c0,37.2-9.5,66-28.4,86.3c-19.8,21.2-48.8,31.7-86.9,31.7h-84.9c-0.8,0-1.4-0.6-1.4-1.4V501.4z M696.2,540.9v154.2
			c0,1,0.8,1.8,1.8,1.8h35.7c27.2,0,47.2-6.3,59.8-19c12.3-12.9,18.4-32.8,18.4-59.8c0-27.8-6.1-47.9-18.4-60.2
			c-12.5-12.5-32.4-18.7-59.8-18.7H698C697,539.1,696.2,539.9,696.2,540.9z"/>
		<path class="st0" d="M1031.6,588.9c13.4,17.1,20.3,40.7,20.5,70.6c0,0.8-0.6,1.4-1.4,1.4l-124.9,0c-0.8,0-1.5,0.7-1.4,1.6
			c1.5,15.3,5.7,26.9,12.8,34.8c7.3,8.4,17.7,12.6,31.4,12.6c11.5,0,20.8-2.6,28.1-7.9c5.2-4,10.1-10.4,14.5-19.4
			c0.4-0.9,1.3-1.5,2.3-1.5c6.1,0,27.8,0,34.3,0c0.9,0,1.6,0.9,1.4,1.8c-4.1,15.3-11.9,28-23.3,38.2c-15.4,13-34.4,19.5-56.9,19.5
			c-25.3,0-45.5-7.8-60.5-23.5c-15.9-16.3-23.8-38.6-23.8-66.8c0-25.6,7.5-46.8,22.5-63.8c14.5-17.4,34.6-26.1,60.2-26.1
			C995.3,560.5,1016.8,570,1031.6,588.9z M938.7,601.8c-6.5,6.5-11.1,16.2-13.6,29c-0.2,0.9,0.5,1.7,1.4,1.7l84.6,0
			c0.9,0,1.5-0.8,1.4-1.6c-3.7-26.5-18.5-39.7-44.4-39.7C955.6,591.2,945.7,594.7,938.7,601.8z"/>
		<path class="st0" d="M1076.2,565.1h38c0.6,0,1.2,0.4,1.4,1l35.4,118.4c0.4,1.3,2.3,1.3,2.7,0l35.4-118.4c0.2-0.6,0.7-1,1.4-1h38
			c1,0,1.7,1,1.3,1.9l-58.2,168.1c-0.2,0.6-0.7,1-1.3,1h-35.7c-0.6,0-1.1-0.4-1.3-1L1074.9,567
			C1074.6,566.1,1075.2,565.1,1076.2,565.1z"/>
		<path class="st1" d="M1261.5,548.6c0-0.8,0.6-1.4,1.4-1.4h75.8c43.4,0,65.1,18.5,65.1,55.5c0,37.4-21.8,56.1-65.3,56.1h-48.7
			c-0.8,0-1.4,0.6-1.4,1.4v74.4c0,0.8-0.6,1.4-1.4,1.4h-24.1c-0.8,0-1.4-0.6-1.4-1.4V548.6z M1288.4,571.3v63.5
			c0,0.8,0.6,1.4,1.4,1.4h47.1c13.4,0,23.5-2.8,30.3-8.3c6.5-5.5,9.7-13.9,9.7-25.1c0-11.5-3.3-19.7-9.9-24.6
			c-6.5-5.5-16.5-8.3-30.1-8.3h-47.1C1289,569.8,1288.4,570.5,1288.4,571.3z"/>
		<path class="st1" d="M1604.3,610.9c8.1,9.2,12.2,21.6,12.2,37.3v86.4c0,0.8-0.6,1.4-1.4,1.4h-17c-0.8,0-1.4-0.6-1.4-1.4v-17.5
			c0-1.3-1.6-1.9-2.5-0.9c-5.1,6.1-11.3,11.2-18.7,15.3c-10.4,5.5-21.7,8.2-33.9,8.2c-13.8,0-24.7-3.5-32.8-10.6
			c-8.5-7.2-12.7-16.8-12.7-28.8c0-17.5,7-30.1,20.9-38.1c11.3-6.7,26.4-10,45.5-10l32.8-0.3v-4.5c0-22.9-11.9-34.4-35.7-34.4
			c-11.1,0-19.7,2.3-25.9,6.9c-6.6,4.6-10.8,11.3-12.5,20.1c-0.1,0.6-0.6,1.1-1.3,1.1h-18.2c-0.9,0-1.6-0.8-1.4-1.7
			c2.4-14.9,9-25.9,19.9-33.2c9.9-7.1,23.4-10.6,40.7-10.6C1580.3,595.6,1594.7,600.7,1604.3,610.9z M1595.3,670
			c0-0.8-0.6-1.4-1.4-1.4l-30,0.3c-30.7,0-46,10.4-46,31.2c0,6.7,2.5,12.2,7.4,16.4c5.1,4.1,12.1,6.1,20.9,6.1
			c13.7,0,25.5-4.2,35.2-12.7c9.3-8.5,14-18.2,14-29.4V670z"/>
		<path class="st1" d="M1691,558.9v39.4c0,0.5,0.4,1,1,1h35.2c0.5,0,1,0.4,1,1V616c0,0.5-0.4,1-1,1H1692c-0.5,0-1,0.4-1,1v86
			c0,5.3,1,8.9,2.9,10.8c1.9,2.3,5.3,3.4,10,3.4h16.5c0.5,0,1,0.4,1,1V735c0,0.5-0.4,1-1,1h-19.7c-11.3,0-19.3-2.9-24.1-8.7
			c-4.4-5.1-6.6-12.9-6.6-23.3v-86c0-0.5-0.4-1-1-1h-28.9c-0.5,0-1-0.4-1-1v-15.8c0-0.5,0.4-1,1-1h28.9c0.5,0,1-0.4,1-1v-31.5
			c0-0.4,0.2-0.7,0.6-0.9l18.9-7.9C1690.3,557.7,1691,558.2,1691,558.9z"/>
		<path class="st1" d="M1438.2,548.6v186c0,0.8,0.6,1.4,1.4,1.4h18.1c0.8,0,1.4-0.6,1.4-1.4v-186c0-0.8-0.6-1.4-1.4-1.4h-18.1
			C1438.8,547.2,1438.2,547.8,1438.2,548.6z"/>
	</g>
	<g>
		<circle class="st2" cx="284.2" cy="456.1" r="50.8"/>
		<circle class="st0" cx="480.4" cy="460.8" r="50.8"/>
		
			<rect x="377.9" y="449.5" transform="matrix(0.9088 0.4171 -0.4171 0.9088 278.3598 -126.5091)" class="st0" width="101.5" height="248.3"/>
		
			<rect x="279.8" y="447.2" transform="matrix(0.9277 -0.3733 0.3733 0.9277 -189.3661 164.6781)" class="st3" width="101.5" height="248.3"/>
		<circle class="st0" cx="180.6" cy="681.7" r="50.8"/>
		
			<rect x="181.6" y="444.8" transform="matrix(0.9088 0.4171 -0.4171 0.9088 258.5127 -45.0805)" class="st0" width="101.5" height="248.3"/>
		<circle class="st1" cx="376.9" cy="686.4" r="50.8"/>
		<polygon class="st1" points="549.5,687 596.8,667.9 550.5,553.1 550.3,564 550.4,553 502,666.9 549,686.9 549,687.2 549.3,687.1 
			549.5,687.1 		"/>
		<circle class="st1" cx="549.1" cy="686.4" r="50.8"/>
		<circle class="st1" cx="284.2" cy="456.1" r="50.8"/>
		<circle class="st1" cx="549.1" cy="685.2" r="50.8"/>
	</g>
</g>
</svg>
